# xmcd
#
# Track frame offsets:
# 150
# 20680
# 35252
# 48213
# 63978
# 84024
# 96465
# 111601
# 126714
# 145136
# 159415
# 178676
# 188141
# 202614
# 219721
# 242376
# 254773
# 274114
# 288133
# 302875
#
# Disc length: 4306 seconds
#
#
# Revision: 0
# Processed by: cddbd v1.5.2PL0 Copyright (c) Steve Scherf et al.
# Submitted via: FreeRIP 2.945 
#
DISCID=2310d014
DTITLE=Gildo de Freitas -  Dose Dupla
DYEAR=1900
DGENRE=
TTITLE0=Oração de São JOrge
TTITLE1=Gaúcho Guapo
TTITLE2=Resposta da Milonga
TTITLE3=Gaúcho Fracassado
TTITLE4=A mula do Falecido Palmeira
TTITLE5=Morena de Santana
TTITLE6=João de Barro
TTITLE7=Briga de Casal
TTITLE8=Prova de Repentista
TTITLE9=Faça Sorrir a Criança
TTITLE10=História dos Passarinhos
TTITLE11=Me Enganei Com Você
TTITLE12=Filho da Natureza
TTITLE13=Dois Poderes
TTITLE14=Alerta Geral
TTITLE15=O Cachorro e o Tatu
TTITLE16=Meu Conselho
TTITLE17=Resposta da Adaga de Ésse
TTITLE18=Duas Mães Perdidas
TTITLE19=Saudação aos Afilhados
EXTD=
EXTT0=
EXTT1=
EXTT2=
EXTT3=
EXTT4=
EXTT5=
EXTT6=
EXTT7=
EXTT8=
EXTT9=
EXTT10=
EXTT11=
EXTT12=
EXTT13=
EXTT14=
EXTT15=
EXTT16=
EXTT17=
EXTT18=
EXTT19=
PLAYORDER=
